# xmcd
#
# Track frame offsets:
#   150
#   14921
#   28646
#   49516
#   67629
#   91338
#   108456
#   125682
#   144438
#   161444
#   176089
#   190405
#   207722
#   219716
#   234268
#   245369
#   258599
#   274730
#   295507
#   310150
#   324424
#   338943
#
# Disc length: 4734 seconds
#
# Revision: 0
# Processed by: cddbd v1.5.1PL0 Copyright (c) Steve Scherf et al.
# Submitted via: Media_Universe 3.0
#
DISCID=47127c16
DTITLE=Trace Adkins - Comin On Strong and Big Time
DYEAR=1900
DGENRE=Country
TTITLE0=Hot Mama
TTITLE1=Comin On Strong
TTITLE2=Then Came The Night
TTITLE3=I'd Sure Hate To Breakdown Here
TTITLE4=Missing You
TTITLE5=One Of Thse Nights
TTITLE6=Untamed
TTITLE7=Then I Wake Up
TTITLE8=One Nightstand
TTITLE9=Baby's Gone
TTITLE10=Rough And Ready
TTITLE11=Big Time
TTITLE12=Took Her To The Moon
TTITLE13=The Rest Of Mine
TTITLE14=Snowball In El Paso
TTITLE15=See Jane Run
TTITLE16=Twenty Four Seven
TTITLE17=Hold You Now
TTITLE18=Nothin' But The Taillights
TTITLE19=Lonely Dont Leave Me Alone
TTITLE20=Out Of My Dreams
TTITLE21=Wayfaring Stranger
EXTD=
EXTT0=
EXTT1=
EXTT2=
EXTT3=
EXTT4=
EXTT5=
EXTT6=
EXTT7=
EXTT8=
EXTT9=
EXTT10=
EXTT11=
EXTT12=
EXTT13=
EXTT14=
EXTT15=
EXTT16=
EXTT17=
EXTT18=
EXTT19=
EXTT20=
EXTT21=
PLAYORDER=
